<svg width="32" height="32" viewBox="0 0 32 32" fill="none" xmlns="http://www.w3.org/2000/svg">
<path d="M16 0C7.16385 0 0 7.16385 0 16C0 24.8362 7.16385 32 16 32C24.8362 32 32 24.8362 32 16C32 7.16385 24.8362 0 16 0ZM23.0277 16.3577C22.9139 16.4725 22.7785 16.5637 22.6294 16.6262C22.4803 16.6886 22.3204 16.7211 22.1587 16.7217C21.9971 16.7224 21.8369 16.6912 21.6873 16.6299C21.5377 16.5686 21.4017 16.4785 21.2869 16.3646L17.2308 12.34V22.6154C17.2308 22.9418 17.1011 23.2549 16.8703 23.4857C16.6395 23.7165 16.3264 23.8462 16 23.8462C15.6736 23.8462 15.3605 23.7165 15.1297 23.4857C14.8989 23.2549 14.7692 22.9418 14.7692 22.6154V12.34L10.7131 16.3646C10.5982 16.4785 10.4621 16.5686 10.3124 16.6298C10.1627 16.691 10.0024 16.7222 9.84072 16.7215C9.679 16.7207 9.51901 16.6882 9.36987 16.6256C9.22074 16.5631 9.08539 16.4718 8.97154 16.3569C8.85769 16.2421 8.76758 16.1059 8.70636 15.9562C8.64513 15.8066 8.61399 15.6463 8.6147 15.4846C8.61541 15.3228 8.64797 15.1629 8.71052 15.0137C8.77307 14.8646 8.86438 14.7292 8.97923 14.6154L15.1331 8.50846C15.3636 8.2797 15.6752 8.15133 16 8.15133C16.3248 8.15133 16.6364 8.2797 16.8669 8.50846L23.0208 14.6154C23.1358 14.7292 23.2272 14.8647 23.2898 15.0139C23.3524 15.1632 23.3849 15.3233 23.3856 15.4851C23.3862 15.6469 23.355 15.8073 23.2935 15.957C23.2321 16.1068 23.1418 16.2429 23.0277 16.3577Z" fill="#FFF9F9" fill-opacity="0.35"/>
</svg>
