<svg width="24" height="24" viewBox="0 0 24 24" fill="none" xmlns="http://www.w3.org/2000/svg">
<path d="M21.8216 5.18L10.6153 16.6L6.45103 12.36L7.83585 10.95L10.6153 13.78L20.4367 3.78L21.8216 5.18ZM19.651 10.22C19.7787 10.79 19.8573 11.39 19.8573 12C19.8573 16.42 16.3412 20 12.0001 20C7.65907 20 4.143 16.42 4.143 12C4.143 7.58 7.65907 4 12.0001 4C13.5519 4 14.9859 4.46 16.2037 5.25L17.618 3.81C16.0269 2.67 14.0921 2 12.0001 2C6.57871 2 2.17871 6.48 2.17871 12C2.17871 17.52 6.57871 22 12.0001 22C17.4216 22 21.8216 17.52 21.8216 12C21.8216 10.81 21.6055 9.67 21.2323 8.61L19.651 10.22Z" fill="#53545C"/>
</svg>
